<svg width="60" height="60" viewBox="0 0 60 60" fill="none" xmlns="http://www.w3.org/2000/svg">
<path fill-rule="evenodd" clip-rule="evenodd" d="M29.015 5.20027C29.3262 5.06685 29.6614 4.99805 30 4.99805C30.3386 4.99805 30.6738 5.06685 30.985 5.20027L46.97 12.0528C47.8696 12.4384 48.6362 13.0796 49.1749 13.8969C49.7135 14.7141 50.0004 15.6715 50 16.6503V33.8003C49.9997 36.8851 49.184 39.915 47.6355 42.583C46.087 45.251 43.8608 47.4623 41.1825 48.9928L31.24 54.6728C30.8623 54.8885 30.4349 55.002 30 55.002C29.5651 55.002 29.1377 54.8885 28.76 54.6728L18.8175 48.9928C16.1384 47.4618 13.9117 45.2498 12.3632 42.5808C10.8147 39.9119 9.99942 36.8809 10 33.7953V16.6503C10.0001 15.6719 10.2872 14.7151 10.8258 13.8983C11.3644 13.0816 12.1308 12.4407 13.03 12.0553L29.015 5.20027ZM39.2675 26.7678C39.7229 26.2963 39.9749 25.6648 39.9692 25.0093C39.9635 24.3538 39.7006 23.7267 39.237 23.2632C38.7735 22.7997 38.1465 22.5368 37.491 22.5311C36.8355 22.5254 36.204 22.7774 35.7325 23.2328L27.5 31.4653L24.2675 28.2328C23.796 27.7774 23.1645 27.5254 22.509 27.5311C21.8535 27.5368 21.2265 27.7997 20.763 28.2632C20.2994 28.7267 20.0365 29.3538 20.0308 30.0093C20.0251 30.6648 20.2771 31.2963 20.7325 31.7678L25.7325 36.7678C26.2013 37.2365 26.8371 37.4997 27.5 37.4997C28.1629 37.4997 28.7987 37.2365 29.2675 36.7678L39.2675 26.7678Z" fill="#F4F6F6"/>
</svg>
