<svg width="50" height="50" viewBox="0 0 50 50" fill="none" xmlns="http://www.w3.org/2000/svg">
<g clip-path="url(#clip0_2122_675)">
<path d="M2.525 0L0 2.525L4.44808 10.2173L7.33269 9.79423L24.9404 27.4038L23.4385 28.8462C22.6692 29.6154 22.6692 30.7808 23.4385 31.55L24.2192 32.3327C24.9885 33.1019 26.1654 33.1019 26.7423 32.3327L29.0269 34.6154C28.8346 35.7692 29.0269 37.1404 29.9885 38.1019L40.3846 48.4385C42.5 50.5538 45.9615 50.5538 48.0769 48.4385C50.5769 46.1308 50.5538 42.6808 48.4385 40.5654L38.1019 30.1673C37.1404 29.2058 35.7692 28.8212 34.6154 29.2058L32.0904 26.9231C32.6673 26.1538 32.6673 24.9769 32.0904 24.3981L31.3692 23.6788C31.1944 23.4965 30.9845 23.3515 30.7522 23.2524C30.5199 23.1533 30.2699 23.1022 30.0173 23.1022C29.7647 23.1022 29.5148 23.1533 29.2824 23.2524C29.0501 23.3515 28.8402 23.4965 28.6654 23.6788L27.4038 24.9404L9.79615 7.33269L10.2154 4.44808L2.525 0ZM40.025 0.0596154C36.2308 -0.255769 31.2 2.25962 28.8462 4.44615C25.95 7.34231 26.4231 11.1288 28.725 14.7846L24.6404 18.8712L27.525 22.1154C29.0635 20.7692 31.3327 20.7692 32.8712 22.1154L33.6538 22.8962L33.8346 23.0769L35.5173 21.3942C38.9942 23.4385 42.6135 23.7327 45.3731 20.9731C48.0654 18.4731 50.9846 12.3077 49.6385 8.65385L44.2308 14.2423C43.4615 15.0115 42.2962 15.0115 41.5269 14.2423L35.9365 8.65385C35.7542 8.47902 35.6092 8.26914 35.5101 8.03681C35.411 7.80448 35.3599 7.55451 35.3599 7.30192C35.3599 7.04934 35.411 6.79937 35.5101 6.56704C35.6092 6.33471 35.7542 6.12482 35.9365 5.95L41.5288 0.361538C41.0481 0.192308 40.5673 0.105769 40.025 0.0596154ZM18.8712 24.0385L11.8981 31.0096C11.1487 30.8438 10.3829 30.7632 9.61539 30.7692C4.23077 30.7692 0 35 0 40.3846C0 45.7692 4.23077 50 9.61539 50C15 50 19.2308 45.7692 19.2308 40.3846C19.2308 39.3981 19.075 38.45 18.8096 37.5596L22.8962 33.4731L22.2962 32.6923C20.7577 31.1538 20.7692 28.8231 22.1154 27.2827L18.8712 24.0385ZM33.775 32.8135C34.0154 32.8135 34.2423 32.8596 34.4346 33.0538L45.7942 44.4115C46.1788 44.7962 46.1788 45.4077 45.7942 45.7923C45.4096 46.1769 44.7942 46.1769 44.4096 45.7923L33.0538 34.4346C32.6692 34.05 32.6692 33.4385 33.0538 33.0538C33.2462 32.8615 33.5346 32.8135 33.775 32.8135ZM10.9385 35.3942L14.6038 39.0615L13.2808 44.0481L8.29423 45.3712L4.62692 41.7038L5.95 36.7173L10.9385 35.3942Z" fill="#F4F6F6"/>
</g>
<defs>
<clipPath id="clip0_2122_675">
<rect width="50" height="50" fill="white"/>
</clipPath>
</defs>
</svg>
