<svg width="60" height="60" viewBox="0 0 60 60" fill="none" xmlns="http://www.w3.org/2000/svg">
<path d="M23 25.0001C20.25 25.0001 17.8958 24.0209 15.9375 22.0626C13.9792 20.1042 13 17.7501 13 15.0001C13 12.2501 13.9792 9.8959 15.9375 7.93756C17.8958 5.97923 20.25 5.00006 23 5.00006C25.75 5.00006 28.1042 5.97923 30.0625 7.93756C32.0208 9.8959 33 12.2501 33 15.0001C33 17.7501 32.0208 20.1042 30.0625 22.0626C28.1042 24.0209 25.75 25.0001 23 25.0001ZM38 25.0001C37.5417 25.0001 36.9583 24.9484 36.25 24.8451C35.5417 24.7417 34.9583 24.6267 34.5 24.5001C35.625 23.1667 36.49 21.6876 37.095 20.0626C37.7 18.4376 38.0017 16.7501 38 15.0001C37.9983 13.2501 37.6958 11.5626 37.0925 9.93756C36.4892 8.31256 35.625 6.8334 34.5 5.50006C35.0833 5.29173 35.6667 5.1559 36.25 5.09256C36.8333 5.02923 37.4167 4.9984 38 5.00006C40.75 5.00006 43.1042 5.97923 45.0625 7.93756C47.0208 9.8959 48 12.2501 48 15.0001C48 17.7501 47.0208 20.1042 45.0625 22.0626C43.1042 24.0209 40.75 25.0001 38 25.0001ZM45.5 55.0001C42.0417 55.0001 39.0942 53.7809 36.6575 51.3426C34.2208 48.9042 33.0017 45.9567 33 42.5001C33 39.0001 34.2192 36.0417 36.6575 33.6251C39.0958 31.2084 42.0433 30.0001 45.5 30.0001C49 30.0001 51.9583 31.2084 54.375 33.6251C56.7917 36.0417 58 39.0001 58 42.5001C58 45.9584 56.7917 48.9067 54.375 51.3451C51.9583 53.7834 49 55.0017 45.5 55.0001ZM43.75 48.1251L52.5625 39.2501L50.8125 37.5001L43.75 44.5626L40.1875 41.0001L38.4375 42.8126L43.75 48.1251ZM3 45.0001V38.0001C3 36.5834 3.365 35.2817 4.095 34.0951C4.825 32.9084 5.79333 32.0017 7 31.3751C9.58333 30.0834 12.2083 29.1151 14.875 28.4701C17.5417 27.8251 20.25 27.5017 23 27.5001C24.875 27.5001 26.7292 27.6459 28.5625 27.9376C30.3958 28.2292 32.2292 28.6876 34.0625 29.3126C31.8125 31.2709 30.1875 33.6359 29.1875 36.4076C28.1875 39.1792 27.8542 42.0434 28.1875 45.0001H3Z" fill="#F4F6F6"/>
</svg>
