<svg width="60" height="60" viewBox="0 0 60 60" fill="none" xmlns="http://www.w3.org/2000/svg">
<path d="M41.25 5C39.17 4.99956 37.1169 5.47103 35.2455 6.37891C33.374 7.2868 31.733 8.60744 30.4458 10.2414C29.1587 11.8754 28.259 13.78 27.8146 15.812C27.3701 17.844 27.3925 19.9504 27.88 21.9725L7.1025 42.75C6.42495 43.414 5.88575 44.2057 5.51608 45.0794C5.14642 45.9531 4.95361 46.8914 4.94882 47.84C4.94403 48.7887 5.12735 49.7289 5.48817 50.6062C5.84899 51.4836 6.38016 52.2807 7.05097 52.9515C7.72178 53.6223 8.51891 54.1535 9.39627 54.5143C10.2736 54.8752 11.2138 55.0585 12.1625 55.0537C13.1111 55.0489 14.0494 54.8561 14.9231 54.4864C15.7968 54.1167 16.5885 53.5776 17.2525 52.9L38.035 32.1225C39.07 32.3725 40.1417 32.4983 41.25 32.5C43.4304 32.5009 45.5798 31.9831 47.5208 30.9896C49.4617 29.996 51.1385 28.5551 52.4128 26.7858C53.6871 25.0165 54.5224 22.9695 54.8496 20.8137C55.1769 18.658 54.9868 16.4553 54.295 14.3875C54.1936 14.0844 54.0165 13.8123 53.7804 13.597C53.5443 13.3816 53.257 13.2302 52.946 13.1571C52.6349 13.0839 52.3103 13.0915 52.0029 13.1791C51.6956 13.2667 51.4158 13.4314 51.19 13.6575L45.08 19.7675C44.7284 20.1186 44.2519 20.3159 43.755 20.3159C43.2581 20.3159 42.7816 20.1186 42.43 19.7675L40.2325 17.5725C39.8814 17.2209 39.6841 16.7444 39.6841 16.2475C39.6841 15.7506 39.8814 15.2741 40.2325 14.9225L46.345 8.81C46.5705 8.584 46.7346 8.30416 46.8216 7.997C46.9087 7.68984 46.9159 7.36553 46.8425 7.05482C46.7692 6.7441 46.6177 6.45726 46.4024 6.22147C46.1872 5.98569 45.9153 5.80878 45.6125 5.7075C44.206 5.23799 42.7328 4.99907 41.25 5Z" fill="#F4F6F6"/>
</svg>
